Coordinates
version=1
nRows=8
nColumns=40
inDegrees=yes

Units are S.I. units (second, meters, Newtons, ...)
Angles are in degrees.

endheader
time	pelvis_tilt	pelvis_list	pelvis_rotation	pelvis_tx	pelvis_ty	pelvis_tz	hip_flexion_r	hip_adduction_r	hip_rotation_r	knee_angle_r	knee_angle_r_beta	ankle_angle_r	subtalar_angle_r	mtp_angle_r	hip_flexion_l	hip_adduction_l	hip_rotation_l	knee_angle_l	knee_angle_l_beta	ankle_angle_l	subtalar_angle_l	mtp_angle_l	lumbar_extension	lumbar_bending	lumbar_rotation	arm_flex_r	arm_add_r	arm_rot_r	elbow_flex_r	pro_sup_r	wrist_flex_r	wrist_dev_r	arm_flex_l	arm_add_l	arm_rot_l	elbow_flex_l	pro_sup_l	wrist_flex_l	wrist_dev_l
     25.47000000	     -3.98141186	     -4.60971361	     -2.12036353	      0.95302342	      0.92213169	      0.52108596	     15.86123836	      4.17818639	     -6.84706320	     24.34680243	     24.34680243	     13.97967371	     -3.62352239	     -2.90764539	     22.29884264	    -14.12430493	     -0.93474521	     63.22726611	     63.22726611	      6.64874676	    -19.33745237	     16.66427733	    -10.99985513	      6.95769678	      1.31185801	      4.75376128	    -19.22608093	    -11.97088839	     47.51651694	     45.63886721	      0.00000000	      0.00000000	     14.49973088	    -10.80158906	     -3.72037014	     39.59666021	     45.82765507	      0.00000000	      0.00000000
     25.48842857	     -3.89816462	     -4.63864810	     -1.38678086	      0.95202469	      0.92062716	      0.52288114	     15.96101722	      4.33762215	     -6.78735807	     25.31604253	     25.31604253	     14.52523943	     -5.10716459	     -2.82771732	     24.05268734	    -14.10426884	     -0.22997071	     64.52652803	     64.52652803	      7.86096529	    -19.37556535	     17.96618192	    -11.06276263	      6.81671594	      0.86873151	      6.44327864	    -19.08691024	    -12.14084726	     49.36876014	     45.58972949	      0.00000000	      0.00000000	     12.91630785	    -10.40851018	     -3.46654279	     37.05860778	     45.79724487	      0.00000000	      0.00000000
     25.50685714	     -3.85235820	     -4.67282870	     -0.63520193	      0.95106289	      0.91906245	      0.52460163	     16.05437903	      4.47219934	     -6.88862797	     26.21882928	     26.21882928	     15.08965584	     -6.28821664	     -2.80073701	     25.78537655	    -14.10156368	      0.34433425	     65.52298611	     65.52298611	      8.77584121	    -19.41518801	     18.45883571	    -11.07283322	      6.69327504	      0.40183268	      8.08078513	    -18.99463907	    -12.32599285	     51.41541070	     45.53374651	      0.00000000	      0.00000000	     11.12613258	    -10.02267370	     -3.22957860	     35.00487283	     45.75660819	      0.00000000	      0.00000000
     25.52528571	     -3.69646439	     -4.72774270	      0.11933519	      0.95022145	      0.91786243	      0.52622749	     15.91105143	      4.66018505	     -6.93591845	     26.91083616	     26.91083616	     15.61247543	     -7.47200447	     -2.45742465	     27.29759365	    -14.09563347	      0.83153715	     66.13289571	     66.13289571	      9.88598403	    -19.45357485	     19.59656454	    -11.24606666	      6.58713302	      0.15631705	      9.41920207	    -18.99586196	    -12.46131773	     54.17195511	     45.45108697	      0.00000000	      0.00000000	      9.63009566	     -9.57249273	     -2.97877018	     32.47737588	     45.72919840	      0.00000000	      0.00000000
     25.54371429	     -3.62006452	     -4.75352137	      0.89975630	      0.94940646	      0.91674596	      0.52754093	     15.79342359	      4.77533058	     -7.12350595	     27.51171092	     27.51171092	     16.32934120	     -8.31480818	     -1.74620560	     28.79429474	    -14.03270041	      1.19606091	     66.28822567	     66.28822567	     11.06777040	    -19.47438966	     21.13864311	    -11.35430567	      6.48620691	      0.53127274	      9.78642446	    -19.34793144	    -12.93130825	     58.00576624	     45.35149325	      0.00000000	      0.00000000	      8.77494303	     -8.87179989	     -2.70553939	     29.37528443	     45.74834168	      0.00000000	      0.00000000
     25.56214286	     -3.55334339	     -4.78793558	      1.63518230	      0.94864314	      0.91594798	      0.52864678	     15.54871004	      4.88125672	     -7.38106750	     27.82991582	     27.82991582	     16.69898035	     -9.02571347	     -1.71466674	     30.05983225	    -14.04257011	      1.29537599	     65.78333066	     65.78333066	     11.70776538	    -19.50947827	     21.13882519	    -11.40954174	      6.38257812	      0.25210922	     11.54576613	    -19.29504097	    -13.28946469	     59.72327592	     45.31627577	      0.00000000	      0.00000000	      6.91910928	     -8.57668938	     -2.58583873	     28.15617575	     45.70868858	      0.00000000	      0.00000000
     25.58057143	     -3.51885468	     -4.75101629	      2.43175601	      0.94792529	      0.91558809	      0.52933791	     15.18638480	      4.91691749	     -7.62281331	     27.86068531	     27.86068531	     16.99877798	     -9.76615677	     -1.49246985	     31.16097189	    -13.88299828	      1.33188886	     64.64474745	     64.64474745	     12.37171443	    -19.53261946	     21.45808347	    -11.47022928	      6.24200625	     -0.26113844	     13.05689596	    -18.93389737	    -13.61842603	     62.34202105	     45.24882713	      0.00000000	      0.00000000	      5.05402143	     -8.38762201	     -2.47558113	     26.83234758	     45.67424227	      0.00000000	      0.00000000
     25.59900000	     -3.55589460	     -4.70468923	      3.19306367	      0.94714109	      0.91552207	      0.52969026	     14.79625484	      4.90153146	     -7.96036722	     27.69061545	     27.69061545	     17.26740242	    -10.20559373	     -1.26192395	     32.12893322	    -13.67109178	      1.23741172	     62.90514612	     62.90514612	     12.94794716	    -19.53542336	     21.74927743	    -11.47990317	      6.11240347	     -0.37067229	     14.19759537	    -18.96178532	    -14.02441786	     65.35019593	     45.17229008	      0.00000000	      0.00000000	      3.39772956	     -8.12066210	     -2.40394562	     25.90470491	     45.64874118	      0.00000000	      0.00000000
